<svg xmlns="http://www.w3.org/2000/svg" width="30" height="30" fill="none"><path fill="#633" d="M6.328 22.04a2.58 2.58 0 0 0 .73-2.15 2.567 2.567 0 0 0-2.88 2.88 2.567 2.567 0 0 0 2.15-.73Zm4.318-6.61.135-.474-7.377-.003v1.5h7.28a1.648 1.648 0 0 1-.037-1.022Zm6.847 0 .135-.474H14.25s-.413 1.459-.428 1.497h3.706a1.669 1.669 0 0 1-.035-1.022Zm4.946 1.023-.003-1.222a.275.275 0 0 0-.276-.275H21.1s-.414 1.459-.428 1.497h1.767Zm2.604-.167v-1.884c0-4.177-3.398-7.576-7.576-7.576h-2.215a7.496 7.496 0 0 0-3.281.747.55.55 0 0 1-.791-.495v-2.01c0-.058-.112-.102-.123-.102h-.012a5.936 5.936 0 0 0-3.938 2.147.547.547 0 0 1-.39.2c-.787.052-1.71.594-2.472 1.45-.759.855-1.213 1.857-1.213 2.683 0 .867.782 2.324 3.674 2.4l4.383.003.061-.22a.551.551 0 0 1 1.06.299l-.506 1.799a.554.554 0 0 0 .053.43.56.56 0 0 0 .495.29c.252 0 .477-.17.545-.413l.78-2.765a.568.568 0 0 0-.282-.657c-.026-.006-.861-.337-.861-.337a.553.553 0 0 1 .41-1.025s.776.302.808.313c.794.32 1.22 1.181.985 2.004l-.08.282h3.379l.061-.22a.551.551 0 0 1 1.06.299l-.506 1.799a.565.565 0 1 0 1.09.307l.782-2.765a.566.566 0 0 0-.284-.657 69.163 69.163 0 0 1-.862-.337.553.553 0 0 1 .41-1.025s.777.302.81.313a1.67 1.67 0 0 1 .986 2.004l-.079.282h.75c.76 0 1.38.618 1.38 1.38 0 0 .009 1.037.006 1.066a9.776 9.776 0 0 1-5.209 8.514 8.66 8.66 0 0 0 6.709-8.511c.003-.003.003-.009.003-.012Zm1.928.167v-1.5h-.823s0 1.453-.003 1.5h.826Zm1.101-2.054v2.605a.55.55 0 0 1-.55.55h-1.448a9.82 9.82 0 0 1-1.043 3.35 9.77 9.77 0 0 1-10.766 4.994.55.55 0 0 1 .085-1.087 8.692 8.692 0 0 0 4.098-1.341 8.63 8.63 0 0 0 3.006-3.279 8.61 8.61 0 0 0 .882-2.636H10.172L8.127 19.6a3.68 3.68 0 0 1-1.02 3.222 3.682 3.682 0 0 1-3.542.95.546.546 0 0 1-.39-.39 3.682 3.682 0 0 1 .95-3.542 3.677 3.677 0 0 1 3.223-1.02l1.265-1.265H2.851a.55.55 0 0 1-.551-.551v-2.605a.55.55 0 0 1 .55-.55h.273c-.727-.566-1.192-1.36-1.192-2.4 0-2.259 2.294-4.886 4.473-5.209a7.036 7.036 0 0 1 4.515-2.37c.056-.006.108-.012.158-.012a1.21 1.21 0 0 1 1.207 1.207v1.178a8.616 8.616 0 0 1 2.97-.521h2.216c4.6 0 8.373 3.594 8.66 8.124h1.394a.554.554 0 0 1 .548.553Z"/><path fill="#CA5F38" d="M26.97 14.95v1.5h-.825l.003-1.5h.823Z"/><path fill="#9ACE57" d="M8.895 10.16c0-1.16-.944-2.1-2.101-2.1s-2.1.943-2.1 2.1.943 2.1 2.1 2.1 2.1-.94 2.1-2.1Zm13.488.167a.55.55 0 0 0 .006-.78 6.872 6.872 0 0 0-4.92-2.059H16.1a.55.55 0 1 0 0 1.102h1.37c1.565 0 3.033.615 4.137 1.731.109.109.25.164.393.164a.554.554 0 0 0 .384-.158Zm2.66 4.075v1.896a8.66 8.66 0 0 1-6.709 8.51 9.775 9.775 0 0 0 5.209-8.514l-.006-1.066a1.38 1.38 0 0 0-1.38-1.38h-.75l.08-.28a1.667 1.667 0 0 0-.988-2.005c-.032-.011-.809-.313-.809-.313a.551.551 0 1 0-.41 1.025s.835.332.862.337a.566.566 0 0 1 .284.657l-.782 2.765a.568.568 0 0 1-1.04.123.567.567 0 0 1-.05-.43l.507-1.8A.55.55 0 1 0 18 13.63l-.061.22h-3.376l.08-.282a1.669 1.669 0 0 0-.985-2.004c-.032-.011-.808-.313-.808-.313a.552.552 0 1 0-.41 1.025s.834.332.86.337a.564.564 0 0 1 .282.657l-.78 2.765a.57.57 0 0 1-.7.393.56.56 0 0 1-.34-.27.582.582 0 0 1-.052-.43l.507-1.8a.55.55 0 0 0-1.06-.298l-.062.22-4.383-.003c-2.892-.076-3.674-1.53-3.674-2.4 0-.826.454-1.828 1.213-2.683.759-.856 1.685-1.398 2.473-1.45a.558.558 0 0 0 .39-.2 5.936 5.936 0 0 1 3.937-2.147h.011c.012-.003.123.044.123.102v2.007c0 .19.097.366.258.466.162.1.364.111.534.03a7.505 7.505 0 0 1 3.28-.748h2.216c4.172.003 7.57 3.402 7.57 7.58Z"/><path fill="#CA5F38" d="m22.436 15.231.003 1.222h-1.767c.014-.038.428-1.497.428-1.497h1.06c.152 0 .276.123.276.275Z"/><path fill="#633" d="M22.389 9.545a.55.55 0 1 1-.785.773 5.774 5.774 0 0 0-4.137-1.731h-1.371a.55.55 0 1 1 0-1.102h1.37c1.864 0 3.61.733 4.923 2.06Z"/><path fill="#CA5F38" d="m17.628 14.956-.135.475c-.096.34-.082.694.038 1.022h-3.709c.015-.038.428-1.497.428-1.497h3.378Zm-6.85 0-.134.475c-.097.34-.082.694.038 1.022H3.404v-1.5l7.374.003Z"/><path fill="#633" d="M7.901 10.16a1.108 1.108 0 0 0-2.214 0 1.108 1.108 0 0 0 2.214 0Zm-1.107-2.1c1.16 0 2.1.943 2.1 2.1s-.943 2.1-2.1 2.1-2.1-.943-2.1-2.1.94-2.1 2.1-2.1Z"/><path fill="#fff" d="M7.345 10.16a.55.55 0 1 0-1.1-.001.55.55 0 0 0 1.1.001Zm-.551-1.107a1.108 1.108 0 0 1 0 2.215 1.108 1.108 0 0 1 0-2.215Z"/><path fill="#633" d="M6.794 9.61a.55.55 0 1 1 .001 1.1.55.55 0 0 1-.001-1.1Z"/><path fill="#6A973A" d="M7.058 19.89a2.567 2.567 0 0 1-2.88 2.88 2.567 2.567 0 0 1 2.88-2.88Z"/></svg>